<?xml version="1.0" encoding="UTF-8" standalone="no"?>
<!-- Created with Inkscape (http://www.inkscape.org/) -->

<svg
   width="393.48337"
   height="315.6232"
   viewBox="0 0 104.10915 83.508639"
   version="1.1"
   id="svg1"
   xml:space="preserve"
   inkscape:version="1.3.1 (91b66b0783, 2023-11-16)"
   sodipodi:docname="logo-04.svg"
   xmlns:inkscape="http://www.inkscape.org/namespaces/inkscape"
   xmlns:sodipodi="http://sodipodi.sourceforge.net/DTD/sodipodi-0.dtd"
   xmlns="http://www.w3.org/2000/svg"
   xmlns:svg="http://www.w3.org/2000/svg"><sodipodi:namedview
     id="namedview1"
     pagecolor="#505050"
     bordercolor="#eeeeee"
     borderopacity="1"
     inkscape:showpageshadow="false"
     inkscape:pageopacity="0"
     inkscape:pagecheckerboard="0"
     inkscape:deskcolor="#505050"
     inkscape:document-units="px"
     inkscape:zoom="0.70593673"
     inkscape:cx="213.90019"
     inkscape:cy="-74.369271"
     inkscape:window-width="1920"
     inkscape:window-height="1027"
     inkscape:window-x="-8"
     inkscape:window-y="-8"
     inkscape:window-maximized="1"
     inkscape:current-layer="layer1"
     showgrid="false"
     showborder="true" /><defs
     id="defs1" /><g
     inkscape:label="Layer 1"
     inkscape:groupmode="layer"
     id="layer1"
     transform="matrix(9.5804875,0,0,9.5804875,-407.58546,-1105.6385)"><rect
       style="fill:#1e0c02;fill-opacity:1;stroke:none;stroke-width:0.371168;stroke-linejoin:bevel;stroke-dasharray:none;stroke-opacity:1"
       id="rect11"
       width="10.299178"
       height="8.7263441"
       x="51.617523"
       y="115.80563"
       transform="matrix(0.99999892,-0.00146836,-0.07315015,0.99732094,0,0)"
       ry="0.50109679"
       rx="0.52989948"
       inkscape:label="background" /><path
       id="rect10"
       style="fill:#edc8a5;fill-opacity:1;stroke-width:0.336264;stroke-linejoin:bevel"
       inkscape:label="neck"
       d="m 48.273576,117.93456 4.155418,-1.72725 -0.134663,1.40292 -3.887984,1.62817 z"
       sodipodi:nodetypes="ccccc" /><rect
       style="fill:#edc8a5;fill-opacity:1;stroke:none;stroke-width:0.353782;stroke-linejoin:bevel;stroke-opacity:1"
       id="rect4"
       width="3.9052081"
       height="6.7227793"
       x="44.699036"
       y="133.94035"
       ry="3.9292228"
       rx="3.636637"
       transform="matrix(0.92943384,-0.36898879,0.0118584,0.99992969,0,0)"
       inkscape:label="halph body 1" /><rect
       style="fill:#edc8a5;fill-opacity:1;stroke:none;stroke-width:0.513204;stroke-linejoin:bevel;stroke-dasharray:none;stroke-opacity:1"
       id="rect5"
       width="2.9565578"
       height="5.0605903"
       x="47.502686"
       y="133.16185"
       ry="2.9956601"
       rx="2.212956"
       transform="matrix(0.93992261,-0.3413876,0.01296162,0.99991599,0,0)"
       inkscape:label="halph body 2" /><path
       id="path3"
       style="display:none;fill:#1e0c02;fill-opacity:0.276923;stroke:#1e0c02;stroke-width:0.130175;stroke-linecap:square;stroke-linejoin:round;stroke-dasharray:none;stroke-opacity:1"
       inkscape:label="G"
       d="m 46.695646,119.82618 c -0.100325,1.5716 -0.781102,3.148 -1.727803,3.61036 -0.890451,0.43489 -1.764925,-0.99593 -1.784974,-2.79533 -0.02003,-1.79941 0.540338,-3.34564 1.376636,-4.10654 0.201784,-0.18358 0.606022,-0.33493 0.923085,-0.28093 0.278758,0.0475 0.523768,0.26655 0.684033,0.50174 0.19379,0.28439 0.386906,0.69935 0.437823,1.08445 l -0.668601,0.21234 c -0.109855,-0.86212 -0.430087,-0.98204 -0.641676,-0.94944 -0.606604,0.22448 -0.86479,1.18289 -0.952239,1.76442 -0.09702,0.64519 -0.212347,1.39483 -0.110849,2.41032 0.152093,1.52171 0.556949,1.59836 0.85486,1.18497 0.270412,-0.37523 0.759021,-1.01819 0.960415,-2.38327"
       sodipodi:nodetypes="csssascccsssc"
       transform="translate(-1.3120163e-6)" /><rect
       style="fill:#351900;fill-opacity:1;stroke:none;stroke-width:0.181614;stroke-linejoin:bevel;stroke-dasharray:none;stroke-opacity:1"
       id="rect9"
       width="1.1037301"
       height="1.6976297"
       x="47.463989"
       y="132.78487"
       ry="1.0049266"
       rx="0.82613152"
       transform="matrix(0.95178588,-0.30676317,0.01460632,0.99989332,0,0)"
       inkscape:label="hole" /><g
       id="g8"
       transform="matrix(2.1677248,-0.59270499,-0.00274462,0.74018099,-61.241042,61.728847)"
       style="stroke-width:0.850211"
       inkscape:label="strings"><rect
         style="fill:#000000;fill-opacity:1;stroke:none;stroke-width:0.0780065;stroke-linejoin:bevel;stroke-dasharray:none;stroke-opacity:1"
         id="rect1"
         width="3.6733189"
         height="0.16280743"
         x="53.356712"
         y="137.95491"
         transform="matrix(0.92215699,-0.38681584,0,1,0,0)"
         inkscape:label="string 6" /><rect
         style="fill:#000000;fill-opacity:1;stroke:none;stroke-width:0.0780065;stroke-linejoin:bevel;stroke-dasharray:none;stroke-opacity:1"
         id="rect2"
         width="3.6733189"
         height="0.16280743"
         x="53.356712"
         y="138.21895"
         transform="matrix(0.92215699,-0.38681584,0,1,0,0)"
         inkscape:label="string 5" /><rect
         style="fill:#000000;fill-opacity:1;stroke:none;stroke-width:0.0780065;stroke-linejoin:bevel;stroke-dasharray:none;stroke-opacity:1"
         id="rect3"
         width="3.6733189"
         height="0.16280743"
         x="53.356712"
         y="138.48299"
         transform="matrix(0.92215699,-0.38681584,0,1,0,0)"
         inkscape:label="string 4" /><rect
         style="fill:#000000;fill-opacity:1;stroke:none;stroke-width:0.0780065;stroke-linejoin:bevel;stroke-dasharray:none;stroke-opacity:1"
         id="rect6"
         width="3.6733189"
         height="0.16280743"
         x="53.356712"
         y="138.74701"
         transform="matrix(0.92215699,-0.38681584,0,1,0,0)"
         inkscape:label="string 3" /><rect
         style="fill:#000000;fill-opacity:1;stroke:none;stroke-width:0.0780065;stroke-linejoin:bevel;stroke-dasharray:none;stroke-opacity:1"
         id="rect7"
         width="3.6733189"
         height="0.16280743"
         x="53.356712"
         y="139.01105"
         transform="matrix(0.92215699,-0.38681584,0,1,0,0)"
         inkscape:label="string 2" /><rect
         style="fill:#000000;fill-opacity:1;stroke:none;stroke-width:0.0780065;stroke-linejoin:bevel;stroke-dasharray:none;stroke-opacity:1"
         id="rect8"
         width="3.6733189"
         height="0.16280743"
         x="53.356712"
         y="139.27509"
         transform="matrix(0.92215699,-0.38681584,0,1,0,0)"
         inkscape:label="string 1" /></g><g
       id="g9"
       transform="matrix(1.2535389,0,0,1.4285593,-20.419679,-54.464614)"
       inkscape:label="D"
       style="display:none"><path
         id="path4"
         style="display:inline;fill:#b49478;fill-opacity:1;stroke:#1e0c02;stroke-width:0.132297;stroke-linecap:round;stroke-dasharray:none;stroke-opacity:1"
         inkscape:label="outer D"
         d="m 58.402233,121.06196 c -0.0593,-0.70157 -0.546536,-0.91162 -1.952838,-0.53634 0,0 0.04261,0.36963 0.07557,0.8026 0.02855,0.3753 -0.01542,0.73332 -0.02954,1.08197 -0.06641,0.5607 -0.03502,0.25878 -0.09329,0.65385 1.214059,-0.49261 1.510913,-0.56187 1.766404,-0.86648 0.209814,-0.25015 0.26659,-0.74642 0.233697,-1.1356 z"
         sodipodi:nodetypes="scsccsss" /><path
         id="path1"
         style="display:inline;fill:#1e0c02;fill-opacity:1;stroke:#010100;stroke-width:0.024932;stroke-linecap:round"
         inkscape:label="inner D"
         d="m 56.86569,122.48915 c 0.868243,-0.35873 1.235836,-0.39492 1.179153,-1.41721 -0.06754,-0.44503 -0.507158,-0.40524 -1.141596,-0.25418 0.03088,0.3031 0.03335,0.43142 0.03815,0.56554 0.0075,0.20832 0.009,0.34565 6.04e-4,0.54363 -0.0062,0.14592 -0.05112,0.48346 -0.07631,0.56222 z"
         sodipodi:nodetypes="cccsscc" /></g><path
       style="fill:none;fill-opacity:1;stroke:#000000;stroke-width:0.0871629;stroke-linecap:round;stroke-dasharray:none;stroke-opacity:1"
       d="m 45.098044,119.44513 -0.0056,1.00834"
       id="path18"
       sodipodi:nodetypes="cc"
       inkscape:label="bridge" /><path
       style="font-size:5.30244px;font-family:'Ink Free';-inkscape-font-specification:'Ink Free';display:none;fill:#b49478;stroke:#1e0c02;stroke-width:0.124232;stroke-linecap:round;stroke-dasharray:none;stroke-opacity:1"
       d="m 50.070289,120.63031 c 0.02718,0.0848 0.04252,0.19912 0.04592,0.34284 0.0065,0.14287 -0.02398,0.28356 -0.09117,0.42206 -0.06509,0.13486 -0.1836,0.22593 -0.355545,0.2732 -0.199105,0.0547 -0.413106,0.063 -0.642117,0.0243 -0.173296,0.30926 -0.443954,0.51448 -0.811966,0.61569 -0.23227,0.0639 -0.435913,0.0584 -0.610956,-0.0166 -0.172004,-0.0757 -0.2893,-0.21127 -0.351859,-0.4064 -0.04988,-0.15557 -0.04167,-0.30399 0.02462,-0.44535 0.06839,-0.14498 0.155524,-0.26743 0.261366,-0.3673 0.107953,-0.10352 0.230376,-0.208 0.36729,-0.31336 -0.04446,-0.16935 -0.05405,-0.35288 -0.02883,-0.55064 0.02433,-0.20057 0.07973,-0.37584 0.166234,-0.52582 0.08952,-0.15078 0.202151,-0.24484 0.33789,-0.28217 0.08744,-0.0242 0.234832,-0.0204 0.336844,0.0184 0.109225,0.0415 0.16976,0.10128 0.204563,0.16193 0.08425,0.14682 0.09922,0.30267 0.0068,0.55001 -0.09802,0.25685 -0.190984,0.41738 -0.364741,0.67043 -0.07793,0.12846 -0.227003,0.32102 -0.114954,0.41953 0.004,0.009 0.192842,0.18962 0.375697,0.23781 0.03829,-0.0751 0.06839,-0.16037 0.09037,-0.25566 0.01778,-0.088 0.03157,-0.17795 0.04149,-0.2699 0.009,-0.0948 0.01213,-0.16184 0.0093,-0.20111 -0.0024,-0.0178 -0.0047,-0.0403 -0.0068,-0.0674 -0.003,-0.0301 0.02441,-0.0749 0.05486,-0.0907 0.03331,-0.0169 0.06629,-0.008 0.07995,-0.008 0.02156,8e-4 0.03925,0.005 0.06336,0.0287 0.02325,0.0213 0.03845,0.0431 0.04574,0.066 0.01998,0.0623 0.02771,0.16318 0.02325,0.3029 -0.0054,0.13689 -0.02067,0.25804 -0.04594,0.36348 -0.01835,0.0758 -0.03521,0.13586 -0.05059,0.18009 0.182869,0.0175 0.346759,0.007 0.491465,-0.0335 0.162899,-0.0447 0.266025,-0.13776 0.309386,-0.27896 0.04548,-0.14485 0.06257,-0.30652 0.05131,-0.48498 -1.2e-5,-0.0307 2.79e-4,-0.0555 8.53e-4,-0.0741 0.0026,-0.0223 0.0086,-0.0346 0.01761,-0.0372 0.01223,-0.003 0.026,-7.9e-4 0.0418,0.008 0.01462,0.005 0.02403,0.0134 0.02767,0.0248 z m -1.504787,-1.03302 c -0.0418,-0.035 -0.07837,-0.0399 -0.138343,-0.0224 -0.09909,0.0289 -0.177531,0.0912 -0.242633,0.22602 -0.06298,0.13118 -0.103023,0.27761 -0.120124,0.43927 -0.01801,0.15884 -0.0125,0.28351 0.01651,0.374 0.139915,-0.13694 0.26683,-0.30419 0.380761,-0.5017 0.07173,-0.12436 0.220789,-0.4167 0.103829,-0.51519 z m -0.256094,1.77578 c -0.08388,-0.0778 -0.124063,-0.1543 -0.135162,-0.15461 -0.108985,0.0713 -0.02908,0.0195 -0.126051,0.0911 -0.04986,0.0368 -0.109008,0.0745 -0.217576,0.20442 -0.110103,0.13176 -0.143936,0.21654 -0.135931,0.28813 0.01313,0.11745 0.02963,0.18947 0.111145,0.24719 0.08674,0.0438 0.128412,0.0582 0.263955,0.0327 0.158009,-0.0297 0.275243,-0.0988 0.373264,-0.17187 0.100122,-0.0768 0.251236,-0.15184 0.327202,-0.25277 -0.240594,-0.0596 -0.313153,-0.16163 -0.46084,-0.28425 -3e-6,0 -6e-6,-1e-5 -6e-6,-1e-5 z"
       id="text9"
       aria-label="&amp;"
       sodipodi:nodetypes="cccscscscccccssscccccccccscscccscccsccccscccccscssscsccsss"
       inkscape:label="&amp;"
       inkscape:transform-center-x="2.4737482"
       inkscape:transform-center-y="0.88139232" /><path
       fill="#343434"
       opacity="1"
       stroke="none"
       d="m 51.525416,121.24608 c -0.262644,0.085 -0.498243,0.15799 -0.733788,0.23612 -0.213547,0.0711 -0.340581,0.002 -0.341697,-0.25085 -0.0032,-0.7132 -0.0028,-1.42767 0.003,-2.14371 0.0018,-0.23149 0.113928,-0.38878 0.31816,-0.45406 0.245383,-0.0785 0.490995,-0.16743 0.736104,-0.23578 0.492753,-0.1384 0.850176,0.0418 0.97016,0.55496 0.06292,0.26902 0.07858,0.58416 0.04633,0.89062 -0.06986,0.66383 -0.216732,1.09671 -0.998196,1.40239 m -0.502652,-0.35961 c 0.0583,0.0733 0.331589,-0.064 0.524629,-0.1414 0.214183,-0.11526 0.327169,-0.24693 0.404816,-0.41157 0.190419,-0.58112 0.23564,-1.03105 0.03045,-1.3917 -0.142532,-0.25059 -0.465223,-0.0332 -0.914277,0.0576 -0.214617,0.0434 -0.156648,0.30433 -0.156056,0.53721 7.09e-4,0.27856 -0.0037,0.72647 0.0095,1.00425 0.0059,0.12573 0.03084,0.30336 0.06665,0.32547 z"
       id="path5"
       style="font-variation-settings:normal;opacity:1;vector-effect:none;fill:#aea78f;fill-opacity:1;stroke:#1e0c02;stroke-width:0.177039;stroke-linecap:round;stroke-linejoin:miter;stroke-miterlimit:4;stroke-dasharray:none;stroke-dashoffset:0;stroke-opacity:1;-inkscape-stroke:none;stop-color:#000000;stop-opacity:1"
       sodipodi:nodetypes="cccccccccccccssccc" /><path
       fill="#343434"
       opacity="1"
       stroke="none"
       d="m 49.014115,120.55472 c 0.130182,0.10459 0.246166,0.19589 0.395797,0.31377 0.06237,-0.17254 0.08739,-0.27871 0.13784,-0.37015 0.04215,-0.0763 0.14074,-0.19894 0.167596,-0.19005 0.06521,0.0214 0.117298,0.0964 0.14714,0.17158 0.0192,0.0483 6.96e-4,0.13679 -0.02005,0.2048 -0.08637,0.28453 -0.07024,0.49376 0.118599,0.63752 0.05907,0.0449 0.03317,0.22197 0.04616,0.3386 -0.0959,0.0135 -0.217254,0.0749 -0.282659,0.034 -0.155971,-0.0944 -0.276987,-0.0198 -0.453296,0.1105 -0.249132,0.18443 -0.52836,0.34525 -0.790403,0.41431 -0.326333,0.085 -0.558385,-0.0889 -0.654701,-0.42989 -0.0907,-0.32102 8.85e-4,-0.65635 0.236916,-0.96454 0.136283,-0.17803 0.173889,-0.31962 0.139098,-0.51573 -0.06163,-0.34731 0.105695,-0.70705 0.402018,-0.94228 0.313238,-0.24862 0.810329,-0.32286 0.958839,-0.11673 0.04808,0.0666 0.0234,0.21352 0.03199,0.32378 -0.08876,0.0211 -0.181077,0.0562 -0.265221,0.0563 -0.07276,-0.002 -0.138778,-0.0824 -0.203346,-0.0565 -0.15356,0.0617 -0.350297,0.12968 -0.440534,0.26582 -0.0612,0.0925 0.0021,0.32781 0.05902,0.45837 0.04855,0.11157 0.167254,0.16465 0.269126,0.25672 m -0.722446,0.52817 c -0.138011,0.32973 -0.08665,0.55141 0.149507,0.6464 0.237086,0.0954 0.509977,-0.0527 0.763875,-0.47136 -0.187241,-0.11954 -0.370569,-0.26387 -0.57966,-0.35431 -0.06709,-0.029 -0.202216,0.0846 -0.333718,0.17929 z"
       id="path6"
       style="font-variation-settings:normal;opacity:1;vector-effect:none;fill:#aea78f;fill-opacity:1;stroke:#1e0c02;stroke-width:0.177039;stroke-linecap:round;stroke-linejoin:miter;stroke-miterlimit:4;stroke-dasharray:none;stroke-dashoffset:0;stroke-opacity:1;-inkscape-stroke:none;stop-color:#000000;stop-opacity:1"
       inkscape:label="new &amp;" /><path
       fill="#343434"
       opacity="1"
       stroke="none"
       d="m 45.456312,120.71061 c 0.527621,-0.27157 1.040044,-0.49749 1.552894,-0.71688 0.02947,-0.012 0.06548,0.0159 0.09295,0.0366 0.375544,0.26481 0.165992,2.21882 -0.284149,2.6559 -0.942852,0.9155 -2.22322,1.08164 -2.965083,0.38452 -0.740619,-0.69581 -0.852682,-2.04711 -0.274785,-3.31341 0.598657,-1.31175 1.765858,-2.21666 2.814356,-2.11995 0.212377,0.0209 0.511658,0.26342 0.496159,0.46354 -0.03591,0.46179 -0.384345,0.46055 -0.66356,0.48902 -1.277907,0.12912 -2.165909,1.1792 -2.148595,2.53384 0.01573,1.21739 0.933469,1.77933 1.937154,1.14235 0.159455,-0.10109 0.364646,-0.44976 0.370861,-0.63385 0.0061,-0.17903 -0.185652,-0.38502 -0.345145,-0.4169 -0.275755,-0.0554 -0.663644,0.13119 -0.583055,-0.5046 z"
       id="path7"
       style="font-variation-settings:normal;opacity:1;vector-effect:none;fill:#aea78f;fill-opacity:1;stroke:#1e0c02;stroke-width:0.178999;stroke-linecap:round;stroke-linejoin:miter;stroke-miterlimit:4;stroke-dasharray:none;stroke-dashoffset:0;stroke-opacity:1;-inkscape-stroke:none;stop-color:#000000;stop-opacity:1"
       inkscape:label="new G" /></g></svg>
