<?xml version="1.0" encoding="UTF-8" standalone="no"?>
<!-- Created with Inkscape (http://www.inkscape.org/) -->

<svg
   width="371.39658"
   height="315.6232"
   viewBox="0 0 98.265352 83.508639"
   version="1.1"
   id="svg1"
   xml:space="preserve"
   inkscape:version="1.3.1 (91b66b0783, 2023-11-16)"
   sodipodi:docname="logo-04.svg"
   xmlns:inkscape="http://www.inkscape.org/namespaces/inkscape"
   xmlns:sodipodi="http://sodipodi.sourceforge.net/DTD/sodipodi-0.dtd"
   xmlns="http://www.w3.org/2000/svg"
   xmlns:svg="http://www.w3.org/2000/svg"><sodipodi:namedview
     id="namedview1"
     pagecolor="#505050"
     bordercolor="#eeeeee"
     borderopacity="1"
     inkscape:showpageshadow="false"
     inkscape:pageopacity="0"
     inkscape:pagecheckerboard="0"
     inkscape:deskcolor="#505050"
     inkscape:document-units="px"
     inkscape:zoom="1.4118735"
     inkscape:cx="229.48232"
     inkscape:cy="132.80227"
     inkscape:window-width="1920"
     inkscape:window-height="1027"
     inkscape:window-x="-8"
     inkscape:window-y="-8"
     inkscape:window-maximized="1"
     inkscape:current-layer="layer1"
     showgrid="false"
     showborder="true" /><defs
     id="defs1" /><g
     inkscape:label="Layer 1"
     inkscape:groupmode="layer"
     id="layer1"
     transform="matrix(9.5804875,0,0,9.5804875,-407.58547,-1105.6385)"><rect
       style="fill:#1e0c02;fill-opacity:1;stroke:none;stroke-width:0.360548;stroke-linejoin:bevel;stroke-dasharray:none;stroke-opacity:1"
       id="rect11"
       width="9.7210722"
       height="8.7237959"
       x="51.10844"
       y="115.77555"
       transform="matrix(0.99999879,-0.00155568,-0.06906428,0.99761221,0,0)"
       ry="0.50095057"
       rx="0.50015551"
       inkscape:label="background" /><path
       id="rect10"
       style="fill:#edc8a5;fill-opacity:1;stroke-width:0.336264;stroke-linejoin:bevel"
       inkscape:label="neck"
       d="m 48.273576,117.93456 4.155418,-1.72725 -0.134663,1.40292 -3.887984,1.62817 z"
       sodipodi:nodetypes="ccccc" /><rect
       style="fill:#edc8a5;fill-opacity:1;stroke:none;stroke-width:0.366626;stroke-linejoin:bevel;stroke-opacity:1"
       id="rect4"
       width="3.9403679"
       height="7.155354"
       x="45.197174"
       y="134.64671"
       ry="4.1820474"
       rx="3.6693788"
       transform="matrix(0.92114054,-0.38923013,0.0111415,0.99993793,0,0)"
       inkscape:label="halph body 1" /><rect
       style="fill:#edc8a5;fill-opacity:1;stroke:none;stroke-width:0.513204;stroke-linejoin:bevel;stroke-dasharray:none;stroke-opacity:1"
       id="rect5"
       width="2.9565578"
       height="5.0605903"
       x="47.502686"
       y="133.16185"
       ry="2.9956601"
       rx="2.212956"
       transform="matrix(0.93992261,-0.3413876,0.01296162,0.99991599,0,0)"
       inkscape:label="halph body 2" /><g
       id="g9"
       transform="matrix(1.0481167,0,0,1.1324449,-12.083212,-16.422152)"><path
         id="path4"
         style="display:inline;fill:#b49478;fill-opacity:1;stroke:#1e0c02;stroke-width:0.132297;stroke-linecap:round;stroke-dasharray:none;stroke-opacity:1"
         inkscape:label="outer D"
         d="m 58.402233,121.06196 c -0.0593,-0.70157 -0.756963,-0.91397 -2.030859,-0.57742 0,0 0.08552,0.41071 0.118479,0.84368 0.02855,0.3753 1.83e-4,0.73332 -0.01394,1.08197 -0.06641,0.62916 -0.01308,0.0664 -0.09084,0.6805 1.232721,-0.34579 1.536016,-0.56482 1.783465,-0.89313 0.166606,-0.22105 0.26659,-0.74642 0.233695,-1.1356 z"
         sodipodi:nodetypes="scsccss" /><path
         id="path1"
         style="display:inline;fill:#1e0c02;fill-opacity:1;stroke:#010100;stroke-width:0.024932;stroke-linecap:round"
         inkscape:label="inner D"
         d="m 56.86569,122.52338 c 0.852639,-0.29127 1.13831,-0.45996 1.112835,-1.30425 -0.02073,-0.44503 -0.06244,-0.60035 -1.106486,-0.40137 0.05429,0.29968 0.03682,0.383 0.05719,0.58248 0.0183,0.17888 0.01531,0.35236 0.0045,0.54363 -0.01747,0.30761 -0.02596,0.35896 -0.06804,0.57951 z"
         sodipodi:nodetypes="cccssc" /></g><path
       id="path3"
       style="display:inline;fill:#1e0c02;fill-opacity:0.276923;stroke:#1e0c02;stroke-width:0.130175;stroke-linecap:square;stroke-linejoin:round;stroke-dasharray:none;stroke-opacity:1"
       inkscape:label="G"
       d="m 46.695646,119.82618 c -0.100325,1.5716 -0.781102,3.148 -1.727803,3.61036 -0.890451,0.43489 -1.764925,-0.99593 -1.784974,-2.79533 -0.02003,-1.79941 0.540338,-3.34564 1.376636,-4.10654 0.201784,-0.18358 0.606022,-0.33493 0.923085,-0.28093 0.278758,0.0475 0.523768,0.26655 0.684033,0.50174 0.19379,0.28439 0.386906,0.69935 0.437823,1.08445 l -0.668601,0.21234 c -0.109855,-0.86212 -0.430087,-0.98204 -0.641676,-0.94944 -0.606604,0.22448 -0.86479,1.18289 -0.952239,1.76442 -0.09702,0.64519 -0.212347,1.39483 -0.110849,2.41032 0.152093,1.52171 0.556949,1.59836 0.85486,1.18497 0.270412,-0.37523 0.759021,-1.01819 0.960415,-2.38327"
       sodipodi:nodetypes="csssascccsssc"
       transform="translate(-1.3120163e-6)" /><rect
       style="fill:#351900;fill-opacity:1;stroke:none;stroke-width:0.181614;stroke-linejoin:bevel;stroke-dasharray:none;stroke-opacity:1"
       id="rect9"
       width="1.1037301"
       height="1.6976297"
       x="47.463989"
       y="132.78487"
       ry="1.0049266"
       rx="0.82613152"
       transform="matrix(0.95178588,-0.30676317,0.01460632,0.99989332,0,0)"
       inkscape:label="hole" /><g
       id="g8"
       transform="matrix(2.1677248,-0.59270499,-0.00274462,0.74018099,-61.241042,61.728847)"
       style="stroke-width:0.850211"
       inkscape:label="strings"><rect
         style="fill:#000000;fill-opacity:1;stroke:none;stroke-width:0.0780065;stroke-linejoin:bevel;stroke-dasharray:none;stroke-opacity:1"
         id="rect1"
         width="3.6733189"
         height="0.16280743"
         x="53.356712"
         y="137.95491"
         transform="matrix(0.92215699,-0.38681584,0,1,0,0)"
         inkscape:label="string 6" /><rect
         style="fill:#000000;fill-opacity:1;stroke:none;stroke-width:0.0780065;stroke-linejoin:bevel;stroke-dasharray:none;stroke-opacity:1"
         id="rect2"
         width="3.6733189"
         height="0.16280743"
         x="53.356712"
         y="138.21895"
         transform="matrix(0.92215699,-0.38681584,0,1,0,0)"
         inkscape:label="string 5" /><rect
         style="fill:#000000;fill-opacity:1;stroke:none;stroke-width:0.0780065;stroke-linejoin:bevel;stroke-dasharray:none;stroke-opacity:1"
         id="rect3"
         width="3.6733189"
         height="0.16280743"
         x="53.356712"
         y="138.48299"
         transform="matrix(0.92215699,-0.38681584,0,1,0,0)"
         inkscape:label="string 4" /><rect
         style="fill:#000000;fill-opacity:1;stroke:none;stroke-width:0.0780065;stroke-linejoin:bevel;stroke-dasharray:none;stroke-opacity:1"
         id="rect6"
         width="3.6733189"
         height="0.16280743"
         x="53.356712"
         y="138.74701"
         transform="matrix(0.92215699,-0.38681584,0,1,0,0)"
         inkscape:label="string 3" /><rect
         style="fill:#000000;fill-opacity:1;stroke:none;stroke-width:0.0780065;stroke-linejoin:bevel;stroke-dasharray:none;stroke-opacity:1"
         id="rect7"
         width="3.6733189"
         height="0.16280743"
         x="53.356712"
         y="139.01105"
         transform="matrix(0.92215699,-0.38681584,0,1,0,0)"
         inkscape:label="string 2" /><rect
         style="fill:#000000;fill-opacity:1;stroke:none;stroke-width:0.0780065;stroke-linejoin:bevel;stroke-dasharray:none;stroke-opacity:1"
         id="rect8"
         width="3.6733189"
         height="0.16280743"
         x="53.356712"
         y="139.27509"
         transform="matrix(0.92215699,-0.38681584,0,1,0,0)"
         inkscape:label="string 1" /></g><path
       style="fill:none;fill-opacity:1;stroke:#000000;stroke-width:0.0871629;stroke-linecap:round;stroke-dasharray:none;stroke-opacity:1"
       d="m 45.098044,119.44513 -0.0056,1.00834"
       id="path18"
       sodipodi:nodetypes="cc"
       inkscape:label="bridge" /></g></svg>
