<?xml version="1.0" encoding="UTF-8" standalone="no"?>
<!-- Created with Inkscape (http://www.inkscape.org/) -->

<svg
   width="371.39658"
   height="315.6232"
   viewBox="0 0 98.265352 83.508639"
   version="1.1"
   id="svg1"
   xml:space="preserve"
   inkscape:version="1.3.1 (91b66b0783, 2023-11-16)"
   sodipodi:docname="logo-04.svg"
   xmlns:inkscape="http://www.inkscape.org/namespaces/inkscape"
   xmlns:sodipodi="http://sodipodi.sourceforge.net/DTD/sodipodi-0.dtd"
   xmlns="http://www.w3.org/2000/svg"
   xmlns:svg="http://www.w3.org/2000/svg"><sodipodi:namedview
     id="namedview1"
     pagecolor="#505050"
     bordercolor="#eeeeee"
     borderopacity="1"
     inkscape:showpageshadow="false"
     inkscape:pageopacity="0"
     inkscape:pagecheckerboard="0"
     inkscape:deskcolor="#505050"
     inkscape:document-units="px"
     inkscape:zoom="0.9983453"
     inkscape:cx="112.18563"
     inkscape:cy="170.78259"
     inkscape:window-width="1920"
     inkscape:window-height="1027"
     inkscape:window-x="-8"
     inkscape:window-y="-8"
     inkscape:window-maximized="1"
     inkscape:current-layer="layer1"
     showgrid="false"
     showborder="true" /><defs
     id="defs1" /><g
     inkscape:label="Layer 1"
     inkscape:groupmode="layer"
     id="layer1"
     transform="matrix(9.5804875,0,0,9.5804875,-407.58547,-1105.6385)"><rect
       style="fill:#1e0c02;fill-opacity:1;stroke:none;stroke-width:0.360548;stroke-linejoin:bevel;stroke-dasharray:none;stroke-opacity:1"
       id="rect11"
       width="9.7210722"
       height="8.7237959"
       x="51.10844"
       y="115.77555"
       transform="matrix(0.99999879,-0.00155568,-0.06906428,0.99761221,0,0)"
       ry="0.50095057"
       rx="0.50015551"
       inkscape:label="background" /><path
       id="rect10"
       style="fill:#edc8a5;fill-opacity:1;stroke-width:0.336264;stroke-linejoin:bevel"
       inkscape:label="neck"
       d="m 48.273576,117.93456 4.155418,-1.72725 -0.134663,1.40292 -3.887984,1.62817 z"
       sodipodi:nodetypes="ccccc" /><rect
       style="fill:#edc8a5;fill-opacity:1;stroke:none;stroke-width:0.366626;stroke-linejoin:bevel;stroke-opacity:1"
       id="rect4"
       width="3.9403679"
       height="7.155354"
       x="45.197174"
       y="134.64671"
       ry="4.1820474"
       rx="3.6693788"
       transform="matrix(0.92114054,-0.38923013,0.0111415,0.99993793,0,0)"
       inkscape:label="halph body 1" /><rect
       style="fill:#edc8a5;fill-opacity:1;stroke:none;stroke-width:0.513204;stroke-linejoin:bevel;stroke-dasharray:none;stroke-opacity:1"
       id="rect5"
       width="2.9565578"
       height="5.0605903"
       x="47.502686"
       y="133.16185"
       ry="2.9956601"
       rx="2.212956"
       transform="matrix(0.93992261,-0.3413876,0.01296162,0.99991599,0,0)"
       inkscape:label="halph body 2" /><path
       id="path3"
       style="display:inline;fill:#1e0c02;fill-opacity:0.27692309;stroke:#1e0c02;stroke-width:0.130175;stroke-linecap:square;stroke-linejoin:round;stroke-dasharray:none;stroke-opacity:1"
       inkscape:label="G"
       d="m 46.4218,119.95332 c -0.129666,1.56182 -0.607575,3.0048 -1.412463,3.34491 -0.912823,0.38573 -1.640443,-0.85762 -1.660492,-2.65702 -0.02003,-1.79941 0.471181,-3.27648 1.307479,-4.03738 0.201784,-0.18358 0.530468,-0.30906 0.812435,-0.2671 0.24787,0.0369 0.454611,0.19739 0.614876,0.43258 0.19379,0.28439 0.274289,0.76376 0.325206,1.14886 l -0.570798,0.15366 c -0.109855,-0.86212 -0.332285,-1.0016 -0.543874,-0.969 -0.606604,0.22448 -0.87771,1.17949 -0.938408,1.76442 -0.07589,0.61859 -0.157021,1.42249 -0.12468,2.41032 0.05004,1.52847 0.556949,1.59836 0.85486,1.18497 0.270412,-0.37523 0.446054,-0.90083 0.647448,-2.26591"
       sodipodi:nodetypes="csssasccccssc"
       transform="translate(-1.3120163e-6)" /><g
       id="g18"
       inkscape:label="D group"
       transform="matrix(1.0022078,0,0,0.93077486,-0.10577101,8.1658137)"><path
         id="path4"
         style="display:inline;fill:#b49478;fill-opacity:1;stroke:#1e0c02;stroke-width:0.132799;stroke-linecap:round;stroke-dasharray:none;stroke-opacity:1"
         inkscape:label="outer D"
         d="m 46.735688,120.84693 c 1.469063,-0.56781 2.463011,-1.58898 2.340883,-2.50371 -0.116766,-0.87457 -0.978341,-0.90741 -2.178073,-0.54733 l -0.09189,1.57167 z"
         sodipodi:nodetypes="csccc" /><path
         id="path1"
         style="display:inline;fill:#351900;fill-opacity:1;stroke:#010100;stroke-width:0.0278493;stroke-linecap:round"
         inkscape:label="inner D"
         transform="matrix(-0.90131588,0.43316243,0.07303093,0.99732968,0,0)"
         d="m -41.231689,138.29122 c -0.840042,0.0371 -1.314882,-0.33484 -1.38019,-0.83732 -0.0653,-0.50248 0.04548,-0.73458 1.155382,-0.83481 l 0.121306,0.87162 z"
         sodipodi:nodetypes="ccccc" /></g><g
       id="g8"
       transform="matrix(2.1677248,-0.59270499,-0.00274462,0.74018099,-61.241042,61.728847)"
       style="stroke-width:0.850211"
       inkscape:label="strings"><rect
         style="fill:#000000;fill-opacity:1;stroke:none;stroke-width:0.0780065;stroke-linejoin:bevel;stroke-dasharray:none;stroke-opacity:1"
         id="rect1"
         width="3.6733189"
         height="0.16280743"
         x="53.356712"
         y="137.95491"
         transform="matrix(0.92215699,-0.38681584,0,1,0,0)"
         inkscape:label="string 6" /><rect
         style="fill:#000000;fill-opacity:1;stroke:none;stroke-width:0.0780065;stroke-linejoin:bevel;stroke-dasharray:none;stroke-opacity:1"
         id="rect2"
         width="3.6733189"
         height="0.16280743"
         x="53.356712"
         y="138.21895"
         transform="matrix(0.92215699,-0.38681584,0,1,0,0)"
         inkscape:label="string 5" /><rect
         style="fill:#000000;fill-opacity:1;stroke:none;stroke-width:0.0780065;stroke-linejoin:bevel;stroke-dasharray:none;stroke-opacity:1"
         id="rect3"
         width="3.6733189"
         height="0.16280743"
         x="53.356712"
         y="138.48299"
         transform="matrix(0.92215699,-0.38681584,0,1,0,0)"
         inkscape:label="string 4" /><rect
         style="fill:#000000;fill-opacity:1;stroke:none;stroke-width:0.0780065;stroke-linejoin:bevel;stroke-dasharray:none;stroke-opacity:1"
         id="rect6"
         width="3.6733189"
         height="0.16280743"
         x="53.356712"
         y="138.74701"
         transform="matrix(0.92215699,-0.38681584,0,1,0,0)"
         inkscape:label="string 3" /><rect
         style="fill:#000000;fill-opacity:1;stroke:none;stroke-width:0.0780065;stroke-linejoin:bevel;stroke-dasharray:none;stroke-opacity:1"
         id="rect7"
         width="3.6733189"
         height="0.16280743"
         x="53.356712"
         y="139.01105"
         transform="matrix(0.92215699,-0.38681584,0,1,0,0)"
         inkscape:label="string 2" /><rect
         style="fill:#000000;fill-opacity:1;stroke:none;stroke-width:0.0780065;stroke-linejoin:bevel;stroke-dasharray:none;stroke-opacity:1"
         id="rect8"
         width="3.6733189"
         height="0.16280743"
         x="53.356712"
         y="139.27509"
         transform="matrix(0.92215699,-0.38681584,0,1,0,0)"
         inkscape:label="string 1" /></g><path
       style="fill:none;fill-opacity:1;stroke:#000000;stroke-width:0.0871629;stroke-linecap:round;stroke-dasharray:none;stroke-opacity:1"
       d="m 45.098044,119.44513 -0.0056,1.00834"
       id="path18"
       sodipodi:nodetypes="cc"
       inkscape:label="bridge" /></g></svg>
