<?xml version="1.0" encoding="UTF-8" standalone="no"?>
<!-- Created with Inkscape (http://www.inkscape.org/) -->

<svg
   width="393.48337"
   height="315.6232"
   viewBox="0 0 104.10915 83.508639"
   version="1.1"
   id="svg1"
   xml:space="preserve"
   inkscape:version="1.3.2 (091e20e, 2023-11-25, custom)"
   sodipodi:docname="logo-04.svg"
   xmlns:inkscape="http://www.inkscape.org/namespaces/inkscape"
   xmlns:sodipodi="http://sodipodi.sourceforge.net/DTD/sodipodi-0.dtd"
   xmlns="http://www.w3.org/2000/svg"
   xmlns:svg="http://www.w3.org/2000/svg"><sodipodi:namedview
     id="namedview1"
     pagecolor="#505050"
     bordercolor="#eeeeee"
     borderopacity="1"
     inkscape:showpageshadow="false"
     inkscape:pageopacity="0"
     inkscape:pagecheckerboard="0"
     inkscape:deskcolor="#505050"
     inkscape:document-units="px"
     inkscape:zoom="0.17648418"
     inkscape:cx="152.98821"
     inkscape:cy="14.165575"
     inkscape:window-width="1920"
     inkscape:window-height="1027"
     inkscape:window-x="-8"
     inkscape:window-y="-8"
     inkscape:window-maximized="1"
     inkscape:current-layer="layer1"
     showgrid="false"
     showborder="true" /><defs
     id="defs1" /><g
     inkscape:label="Layer 1"
     inkscape:groupmode="layer"
     id="layer1"
     transform="matrix(9.5804875,0,0,9.5804875,-407.58546,-1105.6385)"><rect
       style="fill:#1e0c02;fill-opacity:1;stroke:none;stroke-width:0.371168;stroke-linejoin:bevel;stroke-dasharray:none;stroke-opacity:1"
       id="rect11"
       width="10.299178"
       height="8.7263441"
       x="51.617523"
       y="115.80563"
       transform="matrix(0.99999892,-0.00146836,-0.07315015,0.99732094,0,0)"
       ry="0.50109679"
       rx="0.52989948"
       inkscape:label="background" /><path
       id="rect10"
       style="fill:#8a4a1a;fill-opacity:1;stroke-width:0.336264;stroke-linejoin:bevel"
       inkscape:label="neck"
       d="m 48.273576,117.93456 4.155418,-1.72725 -0.134663,1.40292 -3.887984,1.62817 z"
       sodipodi:nodetypes="ccccc" /><rect
       style="fill:#8a4a1a;fill-opacity:1;stroke:none;stroke-width:0.353782;stroke-linejoin:bevel;stroke-opacity:1"
       id="rect4"
       width="3.9052081"
       height="6.7227793"
       x="44.699036"
       y="133.94035"
       ry="3.9292228"
       rx="3.636637"
       transform="matrix(0.92943384,-0.36898879,0.0118584,0.99992969,0,0)"
       inkscape:label="halph body 1" /><rect
       style="fill:#8a4a1a;fill-opacity:1;stroke:none;stroke-width:0.513204;stroke-linejoin:bevel;stroke-dasharray:none;stroke-opacity:1"
       id="rect5"
       width="2.9565578"
       height="5.0605903"
       x="47.502686"
       y="133.16185"
       ry="2.9956601"
       rx="2.212956"
       transform="matrix(0.93992261,-0.3413876,0.01296162,0.99991599,0,0)"
       inkscape:label="halph body 2" /><rect
       style="fill:#351900;fill-opacity:1;stroke:none;stroke-width:0.181614;stroke-linejoin:bevel;stroke-dasharray:none;stroke-opacity:1"
       id="rect9"
       width="1.1037301"
       height="1.6976297"
       x="47.463989"
       y="132.78487"
       ry="1.0049266"
       rx="0.82613152"
       transform="matrix(0.95178588,-0.30676317,0.01460632,0.99989332,0,0)"
       inkscape:label="hole" /><g
       id="g8"
       transform="matrix(2.1677248,-0.59270499,-0.00274462,0.74018099,-61.241042,61.728847)"
       style="stroke-width:0.850211"
       inkscape:label="strings"><rect
         style="fill:#000000;fill-opacity:1;stroke:none;stroke-width:0.0780065;stroke-linejoin:bevel;stroke-dasharray:none;stroke-opacity:1"
         id="rect1"
         width="3.6733189"
         height="0.16280743"
         x="53.356712"
         y="137.95491"
         transform="matrix(0.92215699,-0.38681584,0,1,0,0)"
         inkscape:label="string 6" /><rect
         style="fill:#000000;fill-opacity:1;stroke:none;stroke-width:0.0780065;stroke-linejoin:bevel;stroke-dasharray:none;stroke-opacity:1"
         id="rect2"
         width="3.6733189"
         height="0.16280743"
         x="53.356712"
         y="138.21895"
         transform="matrix(0.92215699,-0.38681584,0,1,0,0)"
         inkscape:label="string 5" /><rect
         style="fill:#000000;fill-opacity:1;stroke:none;stroke-width:0.0780065;stroke-linejoin:bevel;stroke-dasharray:none;stroke-opacity:1"
         id="rect3"
         width="3.6733189"
         height="0.16280743"
         x="53.356712"
         y="138.48299"
         transform="matrix(0.92215699,-0.38681584,0,1,0,0)"
         inkscape:label="string 4" /><rect
         style="fill:#000000;fill-opacity:1;stroke:none;stroke-width:0.0780065;stroke-linejoin:bevel;stroke-dasharray:none;stroke-opacity:1"
         id="rect6"
         width="3.6733189"
         height="0.16280743"
         x="53.356712"
         y="138.74701"
         transform="matrix(0.92215699,-0.38681584,0,1,0,0)"
         inkscape:label="string 3" /><rect
         style="fill:#000000;fill-opacity:1;stroke:none;stroke-width:0.0780065;stroke-linejoin:bevel;stroke-dasharray:none;stroke-opacity:1"
         id="rect7"
         width="3.6733189"
         height="0.16280743"
         x="53.356712"
         y="139.01105"
         transform="matrix(0.92215699,-0.38681584,0,1,0,0)"
         inkscape:label="string 2" /><rect
         style="fill:#000000;fill-opacity:1;stroke:none;stroke-width:0.0780065;stroke-linejoin:bevel;stroke-dasharray:none;stroke-opacity:1"
         id="rect8"
         width="3.6733189"
         height="0.16280743"
         x="53.356712"
         y="139.27509"
         transform="matrix(0.92215699,-0.38681584,0,1,0,0)"
         inkscape:label="string 1" /></g><path
       style="fill:none;fill-opacity:1;stroke:#000000;stroke-width:0.0871629;stroke-linecap:round;stroke-dasharray:none;stroke-opacity:1"
       d="m 45.098044,119.44513 -0.0056,1.00834"
       id="path18"
       sodipodi:nodetypes="cc"
       inkscape:label="bridge" /><g
       id="g1"
       inkscape:label="acronim"
       transform="matrix(1,-0.17118634,0,1,-0.77077716,7.5150204)"><path
         fill="#343434"
         opacity="1"
         stroke="none"
         d="m 51.570198,121.84521 c -0.351694,0.10119 -0.667176,0.18787 -0.982585,0.28154 -0.285952,0.0853 -0.456058,-0.001 -0.457553,-0.30999 -0.0043,-0.87134 -0.0037,-1.74419 0.004,-2.61892 0.0024,-0.28281 0.152557,-0.47379 0.426037,-0.55142 0.328582,-0.093 0.657472,-0.19951 0.985687,-0.2807 0.659826,-0.16401 1.138436,0.0599 1.299102,0.68803 0.08426,0.3293 0.10522,0.71448 0.06204,1.08854 -0.09354,0.81028 -0.290217,1.33757 -1.336644,1.70294 m -0.673081,-0.44455 c 0.07806,0.0901 0.444018,-0.0747 0.70251,-0.16734 0.286804,-0.13856 0.438098,-0.29831 0.542072,-0.49863 0.254983,-0.70797 0.315535,-1.25718 0.04078,-1.6999 -0.190859,-0.30763 -0.622962,-0.0455 -1.22427,0.0609 -0.287386,0.0506 -0.209763,0.37019 -0.20897,0.6547 9.35e-4,0.3403 -0.005,0.88746 0.01271,1.22697 0.008,0.15366 0.04129,0.37093 0.08925,0.39832 z"
         id="path5"
         style="font-variation-settings:normal;opacity:1;vector-effect:none;fill:#aea78f;fill-opacity:1;stroke:#1e0c02;stroke-width:0.226436;stroke-linecap:round;stroke-linejoin:miter;stroke-miterlimit:4;stroke-dasharray:none;stroke-dashoffset:0;stroke-opacity:1;-inkscape-stroke:none;stop-color:#000000;stop-opacity:1"
         sodipodi:nodetypes="cccccccccccccssccc"
         inkscape:label="D" /><path
         fill="#343434"
         opacity="1"
         stroke="none"
         d="m 48.857631,121.18065 c 0.130182,0.10459 0.246166,0.19589 0.395797,0.31377 0.06237,-0.17254 0.08739,-0.27871 0.13784,-0.37015 0.04215,-0.0763 0.14074,-0.19894 0.167596,-0.19005 0.06521,0.0214 0.117298,0.0964 0.14714,0.17158 0.0192,0.0483 6.96e-4,0.13679 -0.02005,0.2048 -0.08637,0.28453 -0.07024,0.49376 0.118599,0.63752 0.05907,0.0449 0.03317,0.22197 0.04616,0.3386 -0.0959,0.0135 -0.217254,0.0749 -0.282659,0.034 -0.155971,-0.0944 -0.276987,-0.0198 -0.453296,0.1105 -0.249132,0.18443 -0.52836,0.34525 -0.790403,0.41431 -0.326333,0.085 -0.558385,-0.0889 -0.654701,-0.42989 -0.0907,-0.32102 8.85e-4,-0.65635 0.236916,-0.96454 0.136283,-0.17803 0.173889,-0.31962 0.139098,-0.51573 -0.06163,-0.34731 0.105695,-0.70705 0.402018,-0.94228 0.313238,-0.24862 0.810329,-0.32286 0.958839,-0.11673 0.04808,0.0666 0.0234,0.21352 0.03199,0.32378 -0.08876,0.0211 -0.181077,0.0562 -0.265221,0.0563 -0.07276,-0.002 -0.138778,-0.0824 -0.203346,-0.0565 -0.15356,0.0617 -0.350297,0.12968 -0.440534,0.26582 -0.0612,0.0925 0.0021,0.32781 0.05902,0.45837 0.04855,0.11157 0.167254,0.16465 0.269126,0.25672 m -0.722446,0.52817 c -0.138011,0.32973 -0.08665,0.55141 0.149507,0.6464 0.237086,0.0954 0.509977,-0.0527 0.763875,-0.47136 -0.187241,-0.11954 -0.370569,-0.26387 -0.57966,-0.35431 -0.06709,-0.029 -0.202216,0.0846 -0.333718,0.17929 z"
         id="path6"
         style="font-variation-settings:normal;opacity:1;vector-effect:none;fill:#aea78f;fill-opacity:1;stroke:#1e0c02;stroke-width:0.177039;stroke-linecap:round;stroke-linejoin:miter;stroke-miterlimit:4;stroke-dasharray:none;stroke-dashoffset:0;stroke-opacity:1;-inkscape-stroke:none;stop-color:#000000;stop-opacity:1"
         inkscape:label="&amp;" /><path
         fill="#343434"
         opacity="1"
         stroke="none"
         d="m 45.893063,121.74793 c 0.387726,-0.19956 0.764283,-0.36558 1.141154,-0.5268 0.02166,-0.009 0.04812,0.0117 0.0683,0.0269 0.275971,0.1946 0.12198,1.63052 -0.208809,1.95171 -0.692861,0.67276 -1.633747,0.79485 -2.17891,0.28257 -0.544249,-0.51132 -0.626599,-1.50434 -0.201928,-2.43488 0.439927,-0.96395 1.297653,-1.62893 2.068148,-1.55786 0.156067,0.0154 0.375995,0.19357 0.364606,0.34063 -0.02639,0.33935 -0.282439,0.33844 -0.487622,0.35936 -0.939078,0.0949 -1.591632,0.86654 -1.578909,1.86201 0.01156,0.89461 0.685966,1.30755 1.423531,0.83946 0.117176,-0.0743 0.267962,-0.33051 0.272529,-0.46579 0.0045,-0.13156 -0.136427,-0.28293 -0.253632,-0.30636 -0.20264,-0.0407 -0.487683,0.0964 -0.428462,-0.37081 z"
         id="path7"
         style="font-variation-settings:normal;opacity:1;vector-effect:none;fill:#aea78f;fill-opacity:1;stroke:#1e0c02;stroke-width:0.131539;stroke-linecap:round;stroke-linejoin:miter;stroke-miterlimit:4;stroke-dasharray:none;stroke-dashoffset:0;stroke-opacity:1;-inkscape-stroke:none;stop-color:#000000;stop-opacity:1"
         inkscape:label="G" /></g></g></svg>
